<mxfile host="app.diagrams.net" modified="2024-05-14T04:40:11.001Z" agent="Mozilla/5.0 (Windows NT 10.0; Win64; x64) AppleWebKit/537.36 (KHTML, like Gecko) Chrome/121.0.0.0 Safari/537.36 OPR/107.0.0.0" version="24.3.1" etag="WzlMiks0Fr7VhoJ0zKmr" type="github">
  <diagram name="Page-1" id="jX39m9umUXUKi2uYIH6M">
    <mxGraphModel>
      <root>
        <mxCell id="0" />
        <mxCell id="1" parent="0" />
      </root>
    </mxGraphModel>
  </diagram>
</mxfile>
